<?xml version="1.0" encoding="UTF-8" standalone="no"?>
<!-- Created with Inkscape (http://www.inkscape.org/) -->
<svg xmlns:dc="http://purl.org/dc/elements/1.1/" xmlns:cc="http://web.resource.org/cc/" xmlns:rdf="http://www.w3.org/1999/02/22-rdf-syntax-ns#" xmlns:svg="http://www.w3.org/2000/svg" xmlns="http://www.w3.org/2000/svg" xmlns:sodipodi="http://sodipodi.sourceforge.net/DTD/sodipodi-0.dtd" xmlns:inkscape="http://www.inkscape.org/namespaces/inkscape" width="150.2587" height="150.2587" id="svg14350" sodipodi:version="0.32" inkscape:version="0.45.1" version="1.0" sodipodi:docbase="F:\Inkscape drawings\Traffic Signs" sodipodi:docname="TS_5.svg" inkscape:output_extension="org.inkscape.output.svg.inkscape">
  <defs id="defs3"/>
  <sodipodi:namedview inkscape:document-units="mm" id="base" pagecolor="#ffffff" bordercolor="#666666" borderopacity="1.0" inkscape:pageopacity="0.0" inkscape:pageshadow="2" inkscape:zoom="0.35" inkscape:cx="350" inkscape:cy="520" inkscape:current-layer="layer1" inkscape:window-width="1280" inkscape:window-height="968" inkscape:window-x="-4" inkscape:window-y="-4"/>
  <metadata id="metadata4">
    <rdf:RDF>
      <cc:Work rdf:about="">
        <dc:format>image/svg+xml</dc:format>
        <dc:type rdf:resource="http://purl.org/dc/dcmitype/StillImage"/>
      </cc:Work>
    </rdf:RDF>
  </metadata>
  <g inkscape:label="Layer 1" inkscape:groupmode="layer" id="layer1" transform="translate(-274.871, -457.233)">
    <g id="g9098" transform="translate(-223.892, 293.809)">
      <rect style="fill:#ffff00;fill-opacity:1;stroke:#000000;stroke-width:3.74880409;stroke-miterlimit:4;stroke-dasharray:none;stroke-opacity:1" id="rect3049" width="106.67611" height="106.67611" x="521.14764" y="-290.45804" ry="5.2659869" transform="matrix(0.707107, 0.707107, -0.707107, 0.707107, 0, 0)"/>
      <g transform="matrix(0.775868, 0, 0, 0.775868, 154.02, -229.237)" id="g3280">
        <path sodipodi:nodetypes="csssssssssscccsssssccccccccssscccssssssccssssccscccc" id="path3282" d="M 482.53906,604.51825 C 482.53906,589.66825 482.78698,577.51825 483.09,577.51825 C 483.39301,577.51825 491.15551,580.95297 500.34,585.15096 C 526.53841,597.12557 525.77598,596.82946 524.56004,594.55745 C 523.03862,591.71466 523.32127,588.43443 525.28906,586.09699 C 527.02942,584.02969 527.02699,584.02845 524.84692,585.87087 C 523.13468,587.31792 522.05378,587.52316 519.90942,586.80837 C 518.39947,586.30506 516.97985,585.34062 516.7547,584.66518 C 516.14916,582.84856 523.0291,576.78917 526.5837,576.00845 C 528.27696,575.63654 531.54711,574.25453 533.85071,572.9373 C 539.81483,569.52693 543.46529,569.88237 554.07035,574.90603 C 563.83104,579.52971 563.90854,579.62131 565.02978,587.85834 L 565.68863,592.69844 L 572.55382,595.73072 C 576.32967,597.39848 579.61108,599.27044 579.84583,599.89063 C 580.08058,600.51082 579.37233,603.38075 578.27193,606.26825 C 575.95224,612.35528 573.53906,613.27765 573.53906,608.07727 C 573.53906,606.18473 573.20156,604.4268 572.78906,604.17077 C 572.37656,603.91473 572.03906,605.57568 572.03906,607.86175 C 572.03906,611.4894 571.65344,612.2111 569.00826,613.53395 L 565.97747,615.04965 L 584.00826,623.27543 L 602.03906,631.50121 L 542.28906,631.50973 L 482.53906,631.51825 L 482.53906,604.51825 z M 560.7187,608.60472 C 560.40193,605.28312 560.73715,604.43456 562.93499,602.99449 C 564.64342,601.87507 566.46264,601.51574 568.28177,601.93839 C 570.32616,602.41337 570.65123,602.31656 569.53906,601.56394 C 567.15906,599.95337 564.02699,600.34661 561.13857,602.61864 L 558.46836,604.71902 L 547.53353,599.86864 C 536.71668,595.07059 536.59837,594.98134 536.56888,591.59699 C 536.54082,588.37809 534.25897,584.51825 532.38407,584.51825 C 531.91932,584.51825 532.43906,585.41825 533.53906,586.51825 C 537.53986,590.51905 535.1753,596.85158 529.68061,596.85158 C 527.95276,596.85158 526.65533,596.96786 526.79745,597.10997 C 527.19745,597.50997 559.97024,612.41884 560.56549,612.47159 C 560.85502,612.49726 560.92397,610.75716 560.7187,608.60472 z M 562.16935,588.26825 C 561.83771,587.03075 561.56022,585.0891 561.55271,583.95346 C 561.54364,582.58144 560.35338,581.32326 558.00513,580.20346 C 553.30216,577.96077 552.98534,578.02663 551.52578,581.55032 C 550.0611,585.08637 549.70261,584.58601 556.03906,587.84975 C 562.23663,591.04197 562.92527,591.08898 562.16935,588.26825 z M 549.44123,580.36903 C 550.83981,576.35706 550.9784,576.79312 547.78906,575.17062 C 542.01432,572.23286 540.70939,572.23141 537.99548,575.15978 L 535.42917,577.92887 L 540.73411,580.67638 C 547.51452,584.18806 548.11733,584.16678 549.44123,580.36903 z " style="fill:#0d0802"/>
      </g>
    </g>
  </g>
</svg>