<?xml version="1.0" encoding="UTF-8"?>
<!-- Generator: Adobe Illustrator 13.0.0, SVG Export Plug-In . SVG Version: 6.00 Build 14948)  -->
<!DOCTYPE svg PUBLIC "-//W3C//DTD SVG 1.1//EN" "http://www.w3.org/Graphics/SVG/1.1/DTD/svg11.dtd">
<svg version="1.1" id="Layer_1" xmlns="http://www.w3.org/2000/svg" xmlns:xlink="http://www.w3.org/1999/xlink" x="0px" y="0px" width="90.236px" height="78.542px" viewBox="0 0 90.236 78.542" enable-background="new 0 0 90.236 78.542" xml:space="preserve">
<rect fill="#1200FF" width="90.236" height="78.542"/>
<polygon fill="#FFFFFF" stroke="#000000" points="45.8,8.965 8.38,71.916 79.322,71.916 "/>
<polygon points="28.875,52.893 21.317,52.882 12.987,68.352 21.641,68.352 "/>
<path d="M31.729,52.776l-5.761,15.468l9.045-0.024l1.449-5.06c0,0,3.108-7.944,2.359-9.027c-1.236-1.786-5.335-1.209-4.903-1.317  S31.729,52.776,31.729,52.776z"/>
<polygon points="40.693,53.64 40.175,57.311 39.167,68.352 48.268,68.375 47.956,59.11 47.293,53.64 "/>
<path d="M51.932,62.078l0.974,6.383l8.891,0.032l-4.671-15.395l-1.623-0.01c0,0-4.412-0.464-4.268,0.552  c0.164,1.153,1.8,0.759,0.394,1.084S51.932,62.078,51.932,62.078z"/>
<polygon points="59.919,53.167 66.567,68.376 75.089,68.259 66.814,53.195 "/>
<path stroke="#FFFFFF" d="M44.684,27.892c0,0-2.565,0.082-5.625,4.977c-0.925,1.479-1.622,4.219-3.029,4.977  s-3.458,0.664-3.895,1.19c-1.061,1.275,0.133,2.345,0.133,2.345s0.684,0.311,1.551,0.409c2.158,0.245,3.454-0.506,3.454-0.506  s3.3-1.454,4.383-3.546c0.58-1.121,1.298,0.108,1.19,1.082s0.409,3.651-0.216,4.219c-2.38,2.163-7.356,7.356-7.356,7.356  l-2.605,9.341l0.469,1.056l1.251,0.821l1.929,0.011l1.365-0.614l2.457-8.941l4.642-4.3l0.751-0.341l2.614,6.537l5.626,6.708  c0,0,0.647,0.217,1.514-0.541s1.73-1.081,1.082-2.271S51.5,50.394,51.5,50.394l-0.648-15.687l1.298,1.73v5.301  c0,0-0.065,1.659,1.73,1.623c1.549-0.031,1.958-0.714,1.958-0.714v-7.371c0,0-3.754-7.576-6.826-7.709  C47.279,27.492,44.684,27.892,44.684,27.892z"/>
<ellipse cx="44.306" cy="23.889" rx="4.057" ry="3.786"/>
</svg>